<svg width="54" height="54" viewBox="0 0 54 54" fill="none" xmlns="http://www.w3.org/2000/svg">
<rect width="54" height="54" rx="27" fill="#222222"/>
<path fill-rule="evenodd" clip-rule="evenodd" d="M27.0278 16.167C21.0597 16.167 16.2227 21.0041 16.2227 26.9722C16.2227 31.7453 19.3177 35.7959 23.6121 37.2259C24.1527 37.3234 24.3477 36.9908 24.3477 36.7048C24.3477 36.4481 24.339 35.7677 24.3357 34.8675C21.3295 35.5197 20.6947 33.418 20.6947 33.418C20.205 32.17 19.4954 31.8374 19.4954 31.8374C18.515 31.1668 19.5702 31.182 19.5702 31.182C20.6557 31.2578 21.2244 32.2957 21.2244 32.2957C22.1886 33.9467 23.7551 33.47 24.3682 33.1937C24.4668 32.495 24.7485 32.0183 25.0562 31.7486C22.6577 31.4767 20.1357 30.5493 20.1357 26.4077C20.1357 25.2302 20.5571 24.2638 21.245 23.5098C21.1356 23.2357 20.7618 22.1362 21.3522 20.6498C21.3522 20.6498 22.259 20.3584 24.3227 21.7559C25.2041 21.5161 26.1133 21.3937 27.0267 21.3919C27.9402 21.3934 28.8494 21.5158 29.7307 21.7559C31.7956 20.3573 32.7012 20.6498 32.7012 20.6498C33.2917 22.1362 32.9212 23.2357 32.8085 23.5098C33.5018 24.2638 33.9178 25.2291 33.9178 26.4077C33.9178 30.5602 31.3937 31.4723 28.9865 31.7399C29.3711 32.0736 29.7177 32.7322 29.7177 33.7397C29.7177 35.1849 29.7047 36.3506 29.7047 36.7048C29.7047 36.9941 29.8976 37.3299 30.449 37.2237C34.7412 35.7916 37.833 31.7442 37.833 26.9722C37.833 21.0041 32.9959 16.167 27.0278 16.167Z" fill="#EDDFE0"/>
</svg>
