<svg width="48" height="48" viewBox="0 0 48 48" fill="none" xmlns="http://www.w3.org/2000/svg">
<rect width="48" height="48" rx="24" fill="#222222"/>
<path d="M16.9829 19.1973C18.1913 19.1973 19.1709 18.2177 19.1709 17.0093C19.1709 15.8009 18.1913 14.8213 16.9829 14.8213C15.7745 14.8213 14.7949 15.8009 14.7949 17.0093C14.7949 18.2177 15.7745 19.1973 16.9829 19.1973Z" fill="#EDDFE0"/>
<path d="M21.2377 20.8547V32.9937H25.0067V26.9907C25.0067 25.4067 25.3047 23.8727 27.2687 23.8727C29.2057 23.8727 29.2297 25.6837 29.2297 27.0907V32.9947H33.0007V26.3377C33.0007 23.0677 32.2967 20.5547 28.4747 20.5547C26.6397 20.5547 25.4097 21.5617 24.9067 22.5147H24.8557V20.8547H21.2377ZM15.0957 20.8547H18.8707V32.9937H15.0957V20.8547Z" fill="#EDDFE0"/>
</svg>
