<svg width="8" height="35" viewBox="0 0 8 35" fill="none" xmlns="http://www.w3.org/2000/svg">
<path d="M4 0.113249L1.11325 3L4 5.88675L6.88675 3L4 0.113249ZM3.64645 34.3536C3.84171 34.5488 4.15829 34.5488 4.35355 34.3536L7.53554 31.1716C7.7308 30.9763 7.7308 30.6597 7.53554 30.4645C7.34027 30.2692 7.02369 30.2692 6.82843 30.4645L4 33.2929L1.17157 30.4645C0.976312 30.2692 0.659729 30.2692 0.464467 30.4645C0.269205 30.6597 0.269205 30.9763 0.464467 31.1716L3.64645 34.3536ZM3.5 3L3.5 34L4.5 34L4.5 3L3.5 3Z" fill="#D3E97A"/>
</svg>
